<?xml version="1.0" encoding="UTF-8" standalone="no"?>
<svg
   xmlns:dc="http://purl.org/dc/elements/1.1/"
   xmlns:cc="http://creativecommons.org/ns#"
   xmlns:rdf="http://www.w3.org/1999/02/22-rdf-syntax-ns#"
   xmlns:svg="http://www.w3.org/2000/svg"
   xmlns="http://www.w3.org/2000/svg"
   xmlns:sodipodi="http://sodipodi.sourceforge.net/DTD/sodipodi-0.dtd"
   xmlns:inkscape="http://www.inkscape.org/namespaces/inkscape"
   version="1.1"
   x="0px"
   y="0px"
   width="100px"
   height="100px"
   viewBox="0 0 100 100"
   enable-background="new 0 0 100 100"
   xml:space="preserve"
   id="svg4452"
   inkscape:version="0.48.4 r9939"
   sodipodi:docname="verde.svg"><metadata
     id="metadata4476"><rdf:RDF><cc:Work
         rdf:about=""><dc:format>image/svg+xml</dc:format><dc:type
           rdf:resource="http://purl.org/dc/dcmitype/StillImage" /></cc:Work></rdf:RDF></metadata><defs
     id="defs4474" /><sodipodi:namedview
     pagecolor="#ffffff"
     bordercolor="#666666"
     borderopacity="1"
     objecttolerance="10"
     gridtolerance="10"
     guidetolerance="10"
     inkscape:pageopacity="0"
     inkscape:pageshadow="2"
     inkscape:window-width="640"
     inkscape:window-height="480"
     id="namedview4472"
     showgrid="false"
     inkscape:zoom="9.44"
     inkscape:cx="49.314108"
     inkscape:cy="21.765971"
     inkscape:window-x="591"
     inkscape:window-y="287"
     inkscape:window-maximized="0"
     inkscape:current-layer="svg4452" /><path
     fill="#000000"
     d="M50,8c-7.732,0-13,6.268-13,14h1c0,6.627,5.373,12,12,12s12-5.373,12-12h1C63,14.268,57.732,8,50,8z M50,32  c-5.523,0-10-4.477-10-10s4.477-10,10-10c5.521,0,10,4.477,10,10S55.521,32,50,32z"
     id="path4454"
     style="fill:#666666" /><path
     fill="#000000"
     d="M50,38c-7.732,0-13,6.268-13,14h1c0,6.626,5.373,12,12,12c6.626,0,12-5.374,12-12h1  C63,44.268,57.732,38,50,38z M50,62c-5.523,0-10-4.479-10-10c0-5.523,4.477-10,10-10c5.521,0,10,4.477,10,10  C60,57.521,55.521,62,50,62z"
     id="path4456"
     style="fill:#666666" /><path
     fill="#000000"
     d="M50,68c-7.732,0-13,6.268-13,14h1c0,6.627,5.373,12,12,12s12-5.373,12-12h1C63,74.268,57.732,68,50,68z   M50,92c-5.523,0-10-4.479-10-10s4.477-10,10-10c5.521,0,10,4.479,10,10S55.521,92,50,92z"
     id="path4458"
     style="fill:#666666" /><path
     d="M72,30c0-10,16-10,16-20V8H70h-0.201C68.872,3.436,64.837,0,60,0H40c-4.838,0-8.873,3.436-9.799,8H30H12v2  c0,10,16,10,16,20h2v8H12v2c0,10,16,10,16,20h2v8H12v2c0,10,16,10,16,20h2c0,5.521,4.477,10,10,10h20c5.521,0,10-4.479,10-10h2  c0-10,16-10,16-20v-2H70v-8h2c0-10,16-10,16-20v-2H70v-8H72z M66,90c0,3.313-2.688,6-6,6H40c-3.313,0-6-2.688-6-6V10  c0-3.313,2.687-6,6-6h20c3.313,0,6,2.687,6,6V90z"
     id="path4460"
     style="fill:#666666"
     fill="#000000" /><circle
     fill="#000000"
     cx="50"
     cy="22"
     r="9"
     id="circle4462"
     style="fill:#666666" /><circle
     fill="#000000"
     cx="50"
     cy="52"
     r="9"
     id="circle4464"
     style="fill:#666666" /><path
     fill="#000000"
     d="M50,73c-4.971,0-9,4.029-9,9s4.029,9,9,9c4.971,0,9-4.029,9-9S54.971,73,50,73z M50,90c-4.419,0-8-3.582-8-8  c0-4.419,3.581-8,8-8c4.418,0,8,3.581,8,8C58,86.418,54.418,90,50,90z"
     id="path4466"
     style="fill:#008000;stroke:#008000" /><path
     fill="#000000"
     d="M50,75c-3.867,0-7,3.133-7,7c0,3.866,3.133,7,7,7c3.866,0,7-3.134,7-7C57,78.133,53.866,75,50,75z M50,88  c-3.314,0-6-2.688-6-6c0-3.314,2.686-6,6-6c3.313,0,6,2.686,6,6C56,85.313,53.313,88,50,88z"
     id="path4468"
     style="fill:#008000;stroke:#008000" /><path
     fill="#000000"
     d="M50,77c-2.762,0-5,2.238-5,5s2.238,5,5,5c2.762,0,5-2.238,5-5S52.762,77,50,77z M50,86c-2.209,0-4-1.79-4-4  c0-2.209,1.791-4,4-4c2.21,0,4,1.791,4,4C54,84.21,52.21,86,50,86z"
     id="path4470"
     style="fill:#008000;stroke:#008000" /></svg>