<?xml version="1.0" encoding="UTF-8" standalone="no"?>
<svg
   xmlns:dc="http://purl.org/dc/elements/1.1/"
   xmlns:cc="http://creativecommons.org/ns#"
   xmlns:rdf="http://www.w3.org/1999/02/22-rdf-syntax-ns#"
   xmlns:svg="http://www.w3.org/2000/svg"
   xmlns="http://www.w3.org/2000/svg"
   xmlns:sodipodi="http://sodipodi.sourceforge.net/DTD/sodipodi-0.dtd"
   xmlns:inkscape="http://www.inkscape.org/namespaces/inkscape"
   version="1.1"
   x="0px"
   y="0px"
   width="100px"
   height="100px"
   viewBox="0 0 100 100"
   enable-background="new 0 0 100 100"
   xml:space="preserve"
   id="svg3842"
   inkscape:version="0.48.4 r9939"
   sodipodi:docname="rojo.svg"><metadata
     id="metadata3860"><rdf:RDF><cc:Work
         rdf:about=""><dc:format>image/svg+xml</dc:format><dc:type
           rdf:resource="http://purl.org/dc/dcmitype/StillImage" /></cc:Work></rdf:RDF></metadata><defs
     id="defs3858" /><sodipodi:namedview
     pagecolor="#ffffff"
     bordercolor="#666666"
     borderopacity="1"
     objecttolerance="10"
     gridtolerance="10"
     guidetolerance="10"
     inkscape:pageopacity="0"
     inkscape:pageshadow="2"
     inkscape:window-width="779"
     inkscape:window-height="480"
     id="namedview3856"
     showgrid="false"
     inkscape:zoom="6.675088"
     inkscape:cx="60.122365"
     inkscape:cy="67.444695"
     inkscape:window-x="639"
     inkscape:window-y="361"
     inkscape:window-maximized="0"
     inkscape:current-layer="svg3842" /><path
     d="M50,8c-7.732,0-13,6.268-13,14h1c0,6.627,5.373,12,12,12s12-5.373,12-12h1C63,14.268,57.732,8,50,8z M50,32  c-5.523,0-10-4.477-10-10s4.477-10,10-10c5.521,0,10,4.477,10,10S55.521,32,50,32z"
     id="path3844"
     style="fill:#666666" /><path
     d="M50,38c-7.732,0-13,6.268-13,14h1c0,6.626,5.373,12,12,12c6.626,0,12-5.374,12-12h1C63,44.268,57.732,38,50,38z M50,62  c-5.523,0-10-4.479-10-10c0-5.523,4.477-10,10-10c5.521,0,10,4.477,10,10C60,57.521,55.521,62,50,62z"
     id="path3846"
     style="fill:#666666" /><path
     d="M50,68c-7.732,0-13,6.268-13,14h1c0,6.627,5.373,12,12,12s12-5.373,12-12h1C63,74.268,57.732,68,50,68z M50,92  c-5.523,0-10-4.479-10-10s4.477-10,10-10c5.521,0,10,4.479,10,10S55.521,92,50,92z"
     id="path3848"
     style="fill:#666666" /><path
     d="M72,30c0-10,16-10,16-20V8H70h-0.201C68.872,3.436,64.837,0,60,0H40c-4.838,0-8.873,3.436-9.799,8H30H12v2c0,10,16,10,16,20  h2v8H12v2c0,10,16,10,16,20h2v8H12v2c0,10,16,10,16,20h2c0,5.521,4.477,10,10,10h20c5.521,0,10-4.479,10-10h2c0-10,16-10,16-20v-2  H70v-8h2c0-10,16-10,16-20v-2H70v-8H72z M66,90c0,3.313-2.688,6-6,6H40c-3.313,0-6-2.688-6-6V10c0-3.313,2.687-6,6-6h20  c3.313,0,6,2.687,6,6V90z"
     id="path3850"
     style="fill:#666666" /><circle
     cx="50"
     cy="82"
     r="9"
     id="circle3852"
     style="fill:#666666" /><circle
     cx="50"
     cy="52"
     r="9"
     id="circle3854"
     style="fill:#666666" /><path
     inkscape:connector-curvature="0"
     d="m 50.036794,12.948595 c -4.971,0 -9,4.029 -9,9 0,4.971 4.029,9 9,9 4.971,0 9,-4.029 9,-9 0,-4.971 -4.029,-9 -9,-9 z m 0,17 c -4.419,0 -8,-3.582 -8,-8 0,-4.419 3.581,-8 8,-8 4.418,0 8,3.581 8,8 0,4.418 -3.582,8 -8,8 z"
     id="path12"
     style="fill:#ff0000;fill-opacity:1;stroke:#ff0000;stroke-opacity:1" /><path
     inkscape:connector-curvature="0"
     d="m 50.036794,14.948595 c -3.867,0 -7,3.133 -7,7 0,3.866 3.133,7 7,7 3.866,0 7,-3.134 7,-7 0,-3.867 -3.134,-7 -7,-7 z m 0,13 c -3.314,0 -6,-2.688 -6,-6 0,-3.314 2.686,-6 6,-6 3.313,0 6,2.686 6,6 0,3.313 -2.687,6 -6,6 z"
     id="path14"
     style="fill:#ff0000;fill-opacity:1;stroke:#ff0000;stroke-opacity:1" /><path
     inkscape:connector-curvature="0"
     d="m 50.036794,16.948595 c -2.762,0 -5,2.238 -5,5 0,2.762 2.238,5 5,5 2.762,0 5,-2.238 5,-5 0,-2.762 -2.238,-5 -5,-5 z m 0,9 c -2.209,0 -4,-1.79 -4,-4 0,-2.209 1.791,-4 4,-4 2.21,0 4,1.791 4,4 0,2.21 -1.79,4 -4,4 z"
     id="path20"
     style="fill:#ff0000;fill-opacity:1;stroke:#ff0000;stroke-opacity:1" /></svg>